<svg version="1.2" xmlns="http://www.w3.org/2000/svg" viewBox="0 0 25 17" width="53" height="36">
	<style>
		.s0 { fill: none } 
		.s1 { fill: #ffffff } 
	</style>
	<g>
		<g id="halo_toolbox_white">
			<path fill-rule="evenodd" class="s0" d="m29-8v32h-32v-32z"/>
			<g>
				<path fill-rule="evenodd" class="s1" d="m19.33 8.49c0-2.74-3.44-4.89-8.36-4.89-4.93 0-8.13 2.67-8.13 5.07h-1.75l-0.75-1.42h1.51c0-1.52 2.61-4.1 5.64-4.69v-0.57c0 0 2.04-0.39 3.52-0.39 1.48 0 4.51-0.02 7.1 1.28 2.59 1.3 3.98 3.3 4.22 4.48 0.13 0.68 0.28 0.83 0.69 0.83h1.52v0.91h-1.53c-0.36 0-0.56 0.16-0.68 0.62-0.2 0.81-0.95 2.52-2.63 3.76-2.04 1.51-4.58 2.21-7.32 2.21-1.18 0-1.49-0.03-1.49-0.03l-0.28-0.72c0 0-1.49-0.04-2.56-0.24-1.08-0.2-1.69-0.43-2.65-1.11 0.27-0.33 0.88-1.16 0.88-1.16 0 0 1.73 1.01 5.13 1.01 4.24 0 7.92-2.2 7.92-4.95zm-5.28 3.95c-0.81-0.42-1.45-0.6-2.14-0.69-1.06-0.13-1.94-0.12-2.91-0.2-0.96-0.09-1.49-0.3-1.84-0.85-0.35-0.55-0.89-1.59-0.95-2.8-0.06-0.95 0.31-1.47 0.48-1.65l1.58 2.48c0.15 0.24 0.46 0.31 0.7 0.16l2.01-1.28c0.24-0.15 0.31-0.47 0.16-0.71l-1.59-2.5 0.05-0.03c0 0 0.6-0.12 0.86-0.1 0.26 0.01 0.49 0.03 0.78 0.16 0.29 0.13 2.27 1.17 2.45 1.26 0.18 0.09 0.2 0.14 0.08 0.21l-0.34 0.22c0.59 0.92 0.26 1.08 0.75 1.86 0.38 0.59 0.99 1.66 2.65 3.2-0.76 0.54-1.71 0.98-2.78 1.26zm-3.5-2.95l0.25-0.16 0.11 0.42-0.14 0.09 0.06 0.1c0.1 0.15 0.31 0.2 0.47 0.1l1.37-0.87c0.16-0.1 0.21-0.31 0.11-0.47l-0.06-0.1-0.31 0.2-0.11-0.43 0.19-0.12-0.08-0.12c-0.1-0.16-0.31-0.21-0.47-0.11l-1.37 0.88c-0.16 0.1-0.2 0.31-0.1 0.46zm0.87-0.89q0.05 0.51 0.25 0.99l-0.18 0.12q-0.2-0.47-0.25-1zm0.72-0.45q0.04 0.5 0.24 0.99l-0.17 0.12q-0.2-0.47-0.26-1zm-1.08 0.69q0.05 0.51 0.25 1l-0.18 0.11q-0.2-0.46-0.25-0.99zm0.72-0.46q0.04 0.51 0.24 1l-0.17 0.11q-0.2-0.47-0.26-0.99z"/>
			</g>
		</g>
	</g>
</svg>