<?xml version="1.0" encoding="UTF-8" standalone="no"?>
<!DOCTYPE svg PUBLIC "-//W3C//DTD SVG 1.1//EN" "http://www.w3.org/Graphics/SVG/1.1/DTD/svg11.dtd">
<svg width="100%" height="100%" viewBox="0 0 1080 1080" version="1.1" xmlns="http://www.w3.org/2000/svg" xmlns:xlink="http://www.w3.org/1999/xlink" xml:space="preserve" xmlns:serif="http://www.serif.com/" style="fill-rule:evenodd;clip-rule:evenodd;stroke-linejoin:round;stroke-miterlimit:2;">
    <g transform="matrix(1,0,0,1,-1872.7,-5879.48)">
        <g id="halo_toolbox_white" transform="matrix(1,0,0,1,1872.7,5879.48)">
            <rect x="0" y="0" width="1080" height="1080" style="fill:none;"/>
            <g transform="matrix(-0.743675,0.473109,0.473109,0.743675,469.479,-2554.87)">
                <path d="M1874.5,3170.74C1892.03,3140.2 1909.1,3121.35 1929.64,3104.35C1961.07,3078.35 1989.78,3060.54 2019.25,3038C2048.73,3015.46 2061.49,2997.77 2061.49,2972.8C2061.49,2947.84 2057.31,2903.1 2034.77,2862.79C2016.99,2830.99 1994.09,2821.64 1985.2,2819.11L1985.2,2931.88C1985.2,2942.68 1976.44,2951.44 1965.64,2951.44L1874.3,2951.44C1863.5,2951.44 1854.73,2942.68 1854.73,2931.88L1854.73,2818.24L1852.29,2818.24C1852.29,2818.24 1830.63,2826.71 1822.53,2832.68C1814.44,2838.64 1807.33,2843.75 1800.66,2853.98C1793.98,2864.21 1751.41,2938.49 1747.45,2945C1743.5,2951.52 1743.9,2953.53 1749.2,2953.53L1764.69,2953.53C1764.69,2995.42 1778.47,2993.82 1778.47,3029.04C1778.47,3056.07 1780.89,3103.07 1758.74,3186.81C1794.43,3188.92 1834.17,3183.47 1874.5,3170.74ZM1927.02,3003.27L1915.5,3003.27L1920.62,3019.18L1927.02,3019.18L1927.02,3023.48C1927.02,3030.64 1921.21,3036.45 1914.05,3036.45L1851.77,3036.45C1844.62,3036.45 1838.8,3030.64 1838.8,3023.48L1838.8,3019.18L1852.55,3019.18L1847.44,3003.27L1838.8,3003.27L1838.8,2997.54C1838.8,2990.38 1844.62,2984.57 1851.77,2984.57L1914.05,2984.57C1921.21,2984.57 1927.02,2990.38 1927.02,2997.54L1927.02,3003.27ZM1864.07,2992.24C1869.77,3003.96 1874.55,3016.1 1876.61,3029.51L1884.61,3029.69C1882.56,3016.83 1878.36,3004.37 1872.43,2992.24L1864.07,2992.24ZM1880.44,2992.24C1886.14,3003.96 1890.92,3016.1 1892.98,3029.51L1900.98,3029.69C1898.93,3016.83 1894.73,3004.37 1888.8,2992.24L1880.44,2992.24ZM1847.69,2992.24C1853.39,3003.96 1858.18,3016.1 1860.24,3029.51L1868.24,3029.69C1866.19,3016.83 1861.99,3004.37 1856.06,2992.24L1847.69,2992.24ZM1896.81,2992.24C1902.51,3003.96 1907.3,3016.1 1909.36,3029.51L1917.35,3029.69C1915.31,3016.83 1911.1,3004.37 1905.17,2992.24L1896.81,2992.24ZM1622.76,3151.67C1566.26,3062.86 1633.18,2922.72 1792.3,2821.49C1951.42,2720.26 2110.04,2740.91 2159.3,2818.34L2215.8,2782.39L2210.63,2721.05L2161.95,2752.03C2130.79,2703.06 1993.29,2673.41 1883.3,2716.38L1871.64,2698.05C1871.64,2698.05 1797.87,2727.3 1750.05,2757.72C1702.23,2788.14 1603.94,2850.03 1546.99,2945.12C1490.04,3040.21 1485.99,3133.64 1502.79,3176.68C1512.45,3201.42 1510.8,3209.21 1497.47,3217.69L1448.35,3248.94L1466.96,3278.19L1516.32,3246.79C1527.92,3239.41 1537.82,3240.24 1551.01,3252.81C1574.11,3274.81 1633.64,3314.79 1713.37,3320.37C1810.53,3327.17 1906.96,3297.57 1995.42,3241.29C2033.38,3217.14 2042.76,3209.83 2042.76,3209.83L2036.96,3180.65C2036.96,3180.65 2084.43,3148.83 2114.98,3120.22C2145.54,3091.6 2160.61,3071.59 2177.75,3029.84C2162.4,3024.86 2125.48,3010.68 2125.48,3010.68C2125.48,3010.68 2090.39,3078.64 1980.42,3148.6C1843.33,3235.81 1679.26,3240.48 1622.76,3151.67Z" style="fill:white;"/>
            </g>
        </g>
    </g>
</svg>
